<mxfile host="app.diagrams.net" modified="2023-08-01T05:11:16.057Z" agent="Mozilla/5.0 (Windows NT 10.0; Win64; x64) AppleWebKit/537.36 (KHTML, like Gecko) Chrome/115.0.0.0 Safari/537.36" etag="ExbxQ_sZKSZyc0Mpt-QS" version="21.6.6" type="github">
  <diagram name="페이지-1" id="lmC1e0WAWtKFa7ixmdLO">
    <mxGraphModel dx="3407" dy="2237" grid="0" gridSize="8" guides="1" tooltips="1" connect="1" arrows="1" fold="1" page="1" pageScale="1" pageWidth="827" pageHeight="1169" math="0" shadow="0">
      <root>
        <mxCell id="0" />
        <mxCell id="1" parent="0" />
        <mxCell id="EpmdLTgnhzdrOh6OM-BU-1" value="&lt;font style=&quot;font-size: 18px;&quot;&gt;메인페이지&lt;/font&gt;" style="ellipse;whiteSpace=wrap;html=1;" parent="1" vertex="1">
          <mxGeometry x="341" y="98" width="120" height="80" as="geometry" />
        </mxCell>
        <mxCell id="EpmdLTgnhzdrOh6OM-BU-2" value="&lt;font style=&quot;font-size: 18px;&quot;&gt;회원가입&lt;/font&gt;" style="ellipse;whiteSpace=wrap;html=1;" parent="1" vertex="1">
          <mxGeometry x="-151" y="290" width="120" height="80" as="geometry" />
        </mxCell>
        <mxCell id="EpmdLTgnhzdrOh6OM-BU-3" value="&lt;font style=&quot;font-size: 18px;&quot;&gt;로그인&lt;/font&gt;" style="ellipse;whiteSpace=wrap;html=1;" parent="1" vertex="1">
          <mxGeometry x="77" y="290" width="120" height="80" as="geometry" />
        </mxCell>
        <mxCell id="EpmdLTgnhzdrOh6OM-BU-5" value="&lt;font style=&quot;font-size: 18px;&quot;&gt;상품검색&lt;/font&gt;" style="ellipse;whiteSpace=wrap;html=1;" parent="1" vertex="1">
          <mxGeometry x="494" y="290" width="120" height="80" as="geometry" />
        </mxCell>
        <mxCell id="EpmdLTgnhzdrOh6OM-BU-6" value="&lt;font style=&quot;font-size: 18px;&quot;&gt;결제수단검색&lt;/font&gt;" style="ellipse;whiteSpace=wrap;html=1;" parent="1" vertex="1">
          <mxGeometry x="668" y="290" width="120" height="80" as="geometry" />
        </mxCell>
        <mxCell id="EpmdLTgnhzdrOh6OM-BU-7" value="&lt;font style=&quot;font-size: 18px;&quot;&gt;장바구니&lt;/font&gt;" style="ellipse;whiteSpace=wrap;html=1;" parent="1" vertex="1">
          <mxGeometry x="835" y="290" width="120" height="80" as="geometry" />
        </mxCell>
        <mxCell id="EpmdLTgnhzdrOh6OM-BU-9" value="&lt;font style=&quot;font-size: 18px;&quot;&gt;마이페이지&lt;/font&gt;" style="ellipse;whiteSpace=wrap;html=1;" parent="1" vertex="1">
          <mxGeometry x="301" y="290" width="120" height="80" as="geometry" />
        </mxCell>
        <mxCell id="EpmdLTgnhzdrOh6OM-BU-12" value="" style="endArrow=classic;html=1;rounded=0;exitX=0.5;exitY=1;exitDx=0;exitDy=0;entryX=1;entryY=0;entryDx=0;entryDy=0;" parent="1" source="EpmdLTgnhzdrOh6OM-BU-1" target="EpmdLTgnhzdrOh6OM-BU-2" edge="1">
          <mxGeometry width="50" height="50" relative="1" as="geometry">
            <mxPoint x="480" y="480" as="sourcePoint" />
            <mxPoint x="530" y="430" as="targetPoint" />
          </mxGeometry>
        </mxCell>
        <mxCell id="EpmdLTgnhzdrOh6OM-BU-13" value="" style="endArrow=classic;html=1;rounded=0;exitX=0.5;exitY=1;exitDx=0;exitDy=0;entryX=0.5;entryY=0;entryDx=0;entryDy=0;" parent="1" source="EpmdLTgnhzdrOh6OM-BU-1" target="EpmdLTgnhzdrOh6OM-BU-3" edge="1">
          <mxGeometry width="50" height="50" relative="1" as="geometry">
            <mxPoint x="540" y="230" as="sourcePoint" />
            <mxPoint x="590" y="180" as="targetPoint" />
          </mxGeometry>
        </mxCell>
        <mxCell id="EpmdLTgnhzdrOh6OM-BU-14" value="" style="endArrow=classic;html=1;rounded=0;exitX=0.5;exitY=1;exitDx=0;exitDy=0;entryX=0.583;entryY=-0.025;entryDx=0;entryDy=0;entryPerimeter=0;" parent="1" source="EpmdLTgnhzdrOh6OM-BU-1" target="EpmdLTgnhzdrOh6OM-BU-9" edge="1">
          <mxGeometry width="50" height="50" relative="1" as="geometry">
            <mxPoint x="634" y="170" as="sourcePoint" />
            <mxPoint x="460" y="230" as="targetPoint" />
          </mxGeometry>
        </mxCell>
        <mxCell id="EpmdLTgnhzdrOh6OM-BU-15" value="" style="endArrow=classic;html=1;rounded=0;entryX=0.5;entryY=0;entryDx=0;entryDy=0;exitX=0.5;exitY=1;exitDx=0;exitDy=0;" parent="1" source="EpmdLTgnhzdrOh6OM-BU-1" target="EpmdLTgnhzdrOh6OM-BU-5" edge="1">
          <mxGeometry width="50" height="50" relative="1" as="geometry">
            <mxPoint x="410" y="230" as="sourcePoint" />
            <mxPoint x="556" y="230" as="targetPoint" />
          </mxGeometry>
        </mxCell>
        <mxCell id="EpmdLTgnhzdrOh6OM-BU-16" value="" style="endArrow=classic;html=1;rounded=0;exitX=0.5;exitY=1;exitDx=0;exitDy=0;entryX=0.5;entryY=0;entryDx=0;entryDy=0;" parent="1" source="EpmdLTgnhzdrOh6OM-BU-1" target="EpmdLTgnhzdrOh6OM-BU-6" edge="1">
          <mxGeometry width="50" height="50" relative="1" as="geometry">
            <mxPoint x="814" y="160" as="sourcePoint" />
            <mxPoint x="640" y="220" as="targetPoint" />
          </mxGeometry>
        </mxCell>
        <mxCell id="EpmdLTgnhzdrOh6OM-BU-17" value="" style="endArrow=classic;html=1;rounded=0;exitX=0.5;exitY=1;exitDx=0;exitDy=0;entryX=0.433;entryY=-0.012;entryDx=0;entryDy=0;entryPerimeter=0;" parent="1" source="EpmdLTgnhzdrOh6OM-BU-1" target="EpmdLTgnhzdrOh6OM-BU-7" edge="1">
          <mxGeometry width="50" height="50" relative="1" as="geometry">
            <mxPoint x="884" y="160" as="sourcePoint" />
            <mxPoint x="710" y="220" as="targetPoint" />
          </mxGeometry>
        </mxCell>
        <mxCell id="EpmdLTgnhzdrOh6OM-BU-18" value="" style="endArrow=classic;html=1;rounded=0;exitX=0.5;exitY=1;exitDx=0;exitDy=0;entryX=0.5;entryY=0;entryDx=0;entryDy=0;" parent="1" source="EpmdLTgnhzdrOh6OM-BU-3" target="EpmdLTgnhzdrOh6OM-BU-37" edge="1">
          <mxGeometry width="50" height="50" relative="1" as="geometry">
            <mxPoint x="297" y="380" as="sourcePoint" />
            <mxPoint x="271.03999999999996" y="417.03999999999996" as="targetPoint" />
          </mxGeometry>
        </mxCell>
        <mxCell id="EpmdLTgnhzdrOh6OM-BU-21" value="" style="endArrow=classic;html=1;rounded=0;exitX=0.5;exitY=1;exitDx=0;exitDy=0;entryX=0.5;entryY=0;entryDx=0;entryDy=0;" parent="1" source="EpmdLTgnhzdrOh6OM-BU-9" target="EpmdLTgnhzdrOh6OM-BU-39" edge="1">
          <mxGeometry width="50" height="50" relative="1" as="geometry">
            <mxPoint x="413" y="380" as="sourcePoint" />
            <mxPoint x="403" y="420" as="targetPoint" />
          </mxGeometry>
        </mxCell>
        <mxCell id="EpmdLTgnhzdrOh6OM-BU-26" value="" style="endArrow=classic;html=1;rounded=0;exitX=0.5;exitY=1;exitDx=0;exitDy=0;entryX=0.5;entryY=0;entryDx=0;entryDy=0;" parent="1" source="EpmdLTgnhzdrOh6OM-BU-6" target="EpmdLTgnhzdrOh6OM-BU-50" edge="1">
          <mxGeometry width="50" height="50" relative="1" as="geometry">
            <mxPoint x="480" y="480" as="sourcePoint" />
            <mxPoint x="744.9999999999995" y="426" as="targetPoint" />
          </mxGeometry>
        </mxCell>
        <mxCell id="EpmdLTgnhzdrOh6OM-BU-27" value="" style="endArrow=classic;html=1;rounded=0;exitX=0.5;exitY=1;exitDx=0;exitDy=0;entryX=0.5;entryY=0;entryDx=0;entryDy=0;" parent="1" source="EpmdLTgnhzdrOh6OM-BU-7" target="EpmdLTgnhzdrOh6OM-BU-51" edge="1">
          <mxGeometry width="50" height="50" relative="1" as="geometry">
            <mxPoint x="1000" y="360" as="sourcePoint" />
            <mxPoint x="894.9999999999995" y="425" as="targetPoint" />
          </mxGeometry>
        </mxCell>
        <mxCell id="EpmdLTgnhzdrOh6OM-BU-33" value="" style="edgeStyle=orthogonalEdgeStyle;rounded=0;orthogonalLoop=1;jettySize=auto;html=1;" parent="1" source="EpmdLTgnhzdrOh6OM-BU-31" target="EpmdLTgnhzdrOh6OM-BU-1" edge="1">
          <mxGeometry relative="1" as="geometry" />
        </mxCell>
        <mxCell id="EpmdLTgnhzdrOh6OM-BU-31" value="Actor" style="shape=umlActor;verticalLabelPosition=bottom;verticalAlign=top;html=1;outlineConnect=0;" parent="1" vertex="1">
          <mxGeometry x="386" y="-15" width="30" height="60" as="geometry" />
        </mxCell>
        <mxCell id="EpmdLTgnhzdrOh6OM-BU-86" value="" style="edgeStyle=orthogonalEdgeStyle;rounded=0;orthogonalLoop=1;jettySize=auto;html=1;" parent="1" source="EpmdLTgnhzdrOh6OM-BU-35" target="EpmdLTgnhzdrOh6OM-BU-69" edge="1">
          <mxGeometry relative="1" as="geometry" />
        </mxCell>
        <mxCell id="EpmdLTgnhzdrOh6OM-BU-35" value="&lt;font style=&quot;font-size: 18px;&quot;&gt;일반회원가입&lt;/font&gt;" style="ellipse;whiteSpace=wrap;html=1;" parent="1" vertex="1">
          <mxGeometry x="-378" y="448" width="120" height="80" as="geometry" />
        </mxCell>
        <mxCell id="EpmdLTgnhzdrOh6OM-BU-36" value="&lt;font style=&quot;font-size: 18px;&quot;&gt;SNS회원가입&lt;/font&gt;" style="ellipse;whiteSpace=wrap;html=1;" parent="1" vertex="1">
          <mxGeometry x="-249" y="448" width="120" height="80" as="geometry" />
        </mxCell>
        <mxCell id="EpmdLTgnhzdrOh6OM-BU-37" value="&lt;font style=&quot;font-size: 18px;&quot;&gt;로그아웃기능&lt;/font&gt;" style="ellipse;whiteSpace=wrap;html=1;" parent="1" vertex="1">
          <mxGeometry x="21" y="448" width="120" height="80" as="geometry" />
        </mxCell>
        <mxCell id="EpmdLTgnhzdrOh6OM-BU-38" value="&lt;font style=&quot;font-size: 18px;&quot;&gt;회원정보 수정 기능&lt;/font&gt;" style="ellipse;whiteSpace=wrap;html=1;" parent="1" vertex="1">
          <mxGeometry x="151" y="448" width="120" height="80" as="geometry" />
        </mxCell>
        <mxCell id="EpmdLTgnhzdrOh6OM-BU-39" value="&lt;span style=&quot;font-size: 18px;&quot;&gt;관심상품&amp;nbsp;&lt;br&gt;관리 기능&lt;br&gt;&lt;/span&gt;" style="ellipse;whiteSpace=wrap;html=1;" parent="1" vertex="1">
          <mxGeometry x="279" y="448" width="120" height="80" as="geometry" />
        </mxCell>
        <mxCell id="EpmdLTgnhzdrOh6OM-BU-40" value="&lt;font style=&quot;font-size: 18px;&quot;&gt;ID / PW&amp;nbsp;&lt;br&gt;일치 확인 기능&lt;/font&gt;" style="ellipse;whiteSpace=wrap;html=1;" parent="1" vertex="1">
          <mxGeometry x="-108" y="448" width="120" height="80" as="geometry" />
        </mxCell>
        <mxCell id="EpmdLTgnhzdrOh6OM-BU-43" value="" style="endArrow=classic;html=1;rounded=0;exitX=0.5;exitY=1;exitDx=0;exitDy=0;entryX=0.5;entryY=0;entryDx=0;entryDy=0;" parent="1" source="EpmdLTgnhzdrOh6OM-BU-2" target="EpmdLTgnhzdrOh6OM-BU-35" edge="1">
          <mxGeometry width="50" height="50" relative="1" as="geometry">
            <mxPoint x="10" y="386" as="sourcePoint" />
            <mxPoint x="60" y="336" as="targetPoint" />
          </mxGeometry>
        </mxCell>
        <mxCell id="EpmdLTgnhzdrOh6OM-BU-44" value="" style="endArrow=classic;html=1;rounded=0;exitX=0.5;exitY=1;exitDx=0;exitDy=0;entryX=0.5;entryY=0;entryDx=0;entryDy=0;" parent="1" source="EpmdLTgnhzdrOh6OM-BU-2" target="EpmdLTgnhzdrOh6OM-BU-36" edge="1">
          <mxGeometry width="50" height="50" relative="1" as="geometry">
            <mxPoint x="-8.04000000000002" y="379" as="sourcePoint" />
            <mxPoint x="-43" y="444" as="targetPoint" />
          </mxGeometry>
        </mxCell>
        <mxCell id="EpmdLTgnhzdrOh6OM-BU-45" value="" style="endArrow=classic;html=1;rounded=0;entryX=0.5;entryY=0;entryDx=0;entryDy=0;exitX=0.5;exitY=1;exitDx=0;exitDy=0;" parent="1" source="EpmdLTgnhzdrOh6OM-BU-3" target="EpmdLTgnhzdrOh6OM-BU-40" edge="1">
          <mxGeometry width="50" height="50" relative="1" as="geometry">
            <mxPoint x="139" y="365" as="sourcePoint" />
            <mxPoint x="102.99999999999997" y="425.03999999999996" as="targetPoint" />
          </mxGeometry>
        </mxCell>
        <mxCell id="EpmdLTgnhzdrOh6OM-BU-46" value="" style="endArrow=classic;html=1;rounded=0;exitX=0.5;exitY=1;exitDx=0;exitDy=0;entryX=0.5;entryY=0;entryDx=0;entryDy=0;" parent="1" source="EpmdLTgnhzdrOh6OM-BU-9" target="EpmdLTgnhzdrOh6OM-BU-38" edge="1">
          <mxGeometry width="50" height="50" relative="1" as="geometry">
            <mxPoint x="264.5" y="352" as="sourcePoint" />
            <mxPoint x="259.5" y="427" as="targetPoint" />
          </mxGeometry>
        </mxCell>
        <mxCell id="EpmdLTgnhzdrOh6OM-BU-47" value="&lt;font style=&quot;font-size: 18px;&quot;&gt;필터링검색기능&lt;/font&gt;" style="ellipse;whiteSpace=wrap;html=1;" parent="1" vertex="1">
          <mxGeometry x="409" y="448" width="120" height="80" as="geometry" />
        </mxCell>
        <mxCell id="EpmdLTgnhzdrOh6OM-BU-48" value="&lt;span style=&quot;font-size: 18px;&quot;&gt;카테고리&lt;br&gt;&lt;/span&gt;&lt;font style=&quot;font-size: 18px;&quot;&gt;분류 기능&lt;/font&gt;" style="ellipse;whiteSpace=wrap;html=1;" parent="1" vertex="1">
          <mxGeometry x="537" y="448" width="120" height="80" as="geometry" />
        </mxCell>
        <mxCell id="EpmdLTgnhzdrOh6OM-BU-49" value="" style="endArrow=classic;html=1;rounded=0;exitX=0.5;exitY=1;exitDx=0;exitDy=0;entryX=0.5;entryY=0;entryDx=0;entryDy=0;" parent="1" source="EpmdLTgnhzdrOh6OM-BU-5" target="EpmdLTgnhzdrOh6OM-BU-48" edge="1">
          <mxGeometry width="50" height="50" relative="1" as="geometry">
            <mxPoint x="611" y="376" as="sourcePoint" />
            <mxPoint x="627.9999999999995" y="432" as="targetPoint" />
          </mxGeometry>
        </mxCell>
        <mxCell id="EpmdLTgnhzdrOh6OM-BU-50" value="&lt;font style=&quot;font-size: 18px;&quot;&gt;혜택추천기능&lt;/font&gt;" style="ellipse;whiteSpace=wrap;html=1;" parent="1" vertex="1">
          <mxGeometry x="665" y="448" width="120" height="80" as="geometry" />
        </mxCell>
        <mxCell id="EpmdLTgnhzdrOh6OM-BU-51" value="&lt;font style=&quot;font-size: 18px;&quot;&gt;장바구니 상품표시&amp;nbsp;기능&lt;/font&gt;" style="ellipse;whiteSpace=wrap;html=1;" parent="1" vertex="1">
          <mxGeometry x="792" y="448" width="120" height="80" as="geometry" />
        </mxCell>
        <mxCell id="EpmdLTgnhzdrOh6OM-BU-52" value="&lt;font style=&quot;font-size: 18px;&quot;&gt;장바구니 보기&lt;/font&gt;" style="ellipse;whiteSpace=wrap;html=1;" parent="1" vertex="1">
          <mxGeometry x="932" y="448" width="120" height="80" as="geometry" />
        </mxCell>
        <mxCell id="EpmdLTgnhzdrOh6OM-BU-53" value="" style="endArrow=classic;html=1;rounded=0;exitX=0.5;exitY=1;exitDx=0;exitDy=0;entryX=0.5;entryY=0;entryDx=0;entryDy=0;" parent="1" source="EpmdLTgnhzdrOh6OM-BU-7" target="EpmdLTgnhzdrOh6OM-BU-52" edge="1">
          <mxGeometry width="50" height="50" relative="1" as="geometry">
            <mxPoint x="945" y="370" as="sourcePoint" />
            <mxPoint x="993" y="445" as="targetPoint" />
          </mxGeometry>
        </mxCell>
        <mxCell id="EpmdLTgnhzdrOh6OM-BU-54" value="&lt;span style=&quot;font-size: 18px;&quot;&gt;최종결제 금액&lt;br&gt;표시 기능&lt;br&gt;&lt;/span&gt;" style="ellipse;whiteSpace=wrap;html=1;" parent="1" vertex="1">
          <mxGeometry x="932" y="573" width="120" height="80" as="geometry" />
        </mxCell>
        <mxCell id="EpmdLTgnhzdrOh6OM-BU-55" value="&lt;font style=&quot;font-size: 18px;&quot;&gt;판매처 링크 &lt;br&gt;제공 기능&lt;/font&gt;" style="ellipse;whiteSpace=wrap;html=1;" parent="1" vertex="1">
          <mxGeometry x="863" y="703" width="120" height="80" as="geometry" />
        </mxCell>
        <mxCell id="EpmdLTgnhzdrOh6OM-BU-56" value="&lt;font style=&quot;font-size: 18px;&quot;&gt;지역카테고리&lt;br&gt;적용 기능&lt;/font&gt;" style="ellipse;whiteSpace=wrap;html=1;" parent="1" vertex="1">
          <mxGeometry x="1007" y="703" width="120" height="80" as="geometry" />
        </mxCell>
        <mxCell id="EpmdLTgnhzdrOh6OM-BU-57" value="&lt;font style=&quot;font-size: 18px;&quot;&gt;판매처 지도 &lt;br&gt;표기 기능&lt;/font&gt;" style="ellipse;whiteSpace=wrap;html=1;" parent="1" vertex="1">
          <mxGeometry x="1007" y="845" width="120" height="80" as="geometry" />
        </mxCell>
        <mxCell id="EpmdLTgnhzdrOh6OM-BU-58" value="" style="endArrow=classic;html=1;rounded=0;exitX=0.5;exitY=1;exitDx=0;exitDy=0;entryX=0.5;entryY=0;entryDx=0;entryDy=0;" parent="1" source="EpmdLTgnhzdrOh6OM-BU-52" target="EpmdLTgnhzdrOh6OM-BU-54" edge="1">
          <mxGeometry width="50" height="50" relative="1" as="geometry">
            <mxPoint x="337" y="606" as="sourcePoint" />
            <mxPoint x="387" y="556" as="targetPoint" />
          </mxGeometry>
        </mxCell>
        <mxCell id="EpmdLTgnhzdrOh6OM-BU-59" value="" style="endArrow=classic;html=1;rounded=0;exitX=0.5;exitY=1;exitDx=0;exitDy=0;entryX=0.5;entryY=0;entryDx=0;entryDy=0;" parent="1" source="EpmdLTgnhzdrOh6OM-BU-54" target="EpmdLTgnhzdrOh6OM-BU-55" edge="1">
          <mxGeometry width="50" height="50" relative="1" as="geometry">
            <mxPoint x="863" y="629" as="sourcePoint" />
            <mxPoint x="863" y="677" as="targetPoint" />
          </mxGeometry>
        </mxCell>
        <mxCell id="EpmdLTgnhzdrOh6OM-BU-60" value="" style="endArrow=classic;html=1;rounded=0;exitX=0.5;exitY=1;exitDx=0;exitDy=0;entryX=0.5;entryY=0;entryDx=0;entryDy=0;" parent="1" source="EpmdLTgnhzdrOh6OM-BU-54" target="EpmdLTgnhzdrOh6OM-BU-56" edge="1">
          <mxGeometry width="50" height="50" relative="1" as="geometry">
            <mxPoint x="1088" y="620" as="sourcePoint" />
            <mxPoint x="1088" y="668" as="targetPoint" />
          </mxGeometry>
        </mxCell>
        <mxCell id="EpmdLTgnhzdrOh6OM-BU-62" value="" style="endArrow=classic;html=1;rounded=0;exitX=0.5;exitY=1;exitDx=0;exitDy=0;" parent="1" source="EpmdLTgnhzdrOh6OM-BU-56" target="EpmdLTgnhzdrOh6OM-BU-57" edge="1">
          <mxGeometry width="50" height="50" relative="1" as="geometry">
            <mxPoint x="950" y="817" as="sourcePoint" />
            <mxPoint x="950" y="865" as="targetPoint" />
          </mxGeometry>
        </mxCell>
        <mxCell id="EpmdLTgnhzdrOh6OM-BU-67" value="&lt;font style=&quot;font-size: 18px;&quot;&gt;상세페이지 &lt;br&gt;조회 기능&lt;/font&gt;" style="ellipse;whiteSpace=wrap;html=1;" parent="1" vertex="1">
          <mxGeometry x="409" y="573" width="120" height="80" as="geometry" />
        </mxCell>
        <mxCell id="EpmdLTgnhzdrOh6OM-BU-69" value="&lt;font style=&quot;font-size: 18px;&quot;&gt;아이디 중복&lt;br&gt;체크 기능&lt;/font&gt;" style="ellipse;whiteSpace=wrap;html=1;" parent="1" vertex="1">
          <mxGeometry x="-378" y="573" width="120" height="80" as="geometry" />
        </mxCell>
        <mxCell id="EpmdLTgnhzdrOh6OM-BU-70" value="" style="endArrow=classic;html=1;rounded=0;exitX=0.5;exitY=1;exitDx=0;exitDy=0;" parent="1" source="EpmdLTgnhzdrOh6OM-BU-35" edge="1">
          <mxGeometry width="50" height="50" relative="1" as="geometry">
            <mxPoint x="-167" y="667.72" as="sourcePoint" />
            <mxPoint x="-318" y="570" as="targetPoint" />
          </mxGeometry>
        </mxCell>
        <mxCell id="EpmdLTgnhzdrOh6OM-BU-71" value="&lt;span style=&quot;font-size: 18px;&quot;&gt;비밀번호 생성&amp;nbsp;&lt;br&gt;조건 기능&lt;br&gt;&lt;/span&gt;" style="ellipse;whiteSpace=wrap;html=1;" parent="1" vertex="1">
          <mxGeometry x="-379" y="703" width="120" height="80" as="geometry" />
        </mxCell>
        <mxCell id="EpmdLTgnhzdrOh6OM-BU-72" value="&lt;font style=&quot;font-size: 18px;&quot;&gt;관심상품 설정기능&lt;/font&gt;" style="ellipse;whiteSpace=wrap;html=1;" parent="1" vertex="1">
          <mxGeometry x="464" y="769" width="120" height="80" as="geometry" />
        </mxCell>
        <mxCell id="EpmdLTgnhzdrOh6OM-BU-76" value="&lt;font style=&quot;font-size: 18px;&quot;&gt;URL공유 기능&lt;/font&gt;" style="ellipse;whiteSpace=wrap;html=1;" parent="1" vertex="1">
          <mxGeometry x="197" y="772" width="120" height="80" as="geometry" />
        </mxCell>
        <mxCell id="EpmdLTgnhzdrOh6OM-BU-78" value="&lt;span style=&quot;font-size: 18px;&quot;&gt;상품평 &lt;br&gt;관리 기능&lt;br&gt;&lt;/span&gt;" style="ellipse;whiteSpace=wrap;html=1;" parent="1" vertex="1">
          <mxGeometry x="65" y="775" width="120" height="80" as="geometry" />
        </mxCell>
        <mxCell id="EpmdLTgnhzdrOh6OM-BU-79" value="&lt;font style=&quot;font-size: 18px;&quot;&gt;장바구니 담기 기능&lt;/font&gt;" style="ellipse;whiteSpace=wrap;html=1;" parent="1" vertex="1">
          <mxGeometry x="333" y="772" width="120" height="80" as="geometry" />
        </mxCell>
        <mxCell id="EpmdLTgnhzdrOh6OM-BU-84" value="&lt;font style=&quot;font-size: 18px;&quot;&gt;결제수단 혜택 &lt;br&gt;제공 기능&lt;/font&gt;" style="ellipse;whiteSpace=wrap;html=1;" parent="1" vertex="1">
          <mxGeometry x="599" y="769" width="120" height="80" as="geometry" />
        </mxCell>
        <mxCell id="EpmdLTgnhzdrOh6OM-BU-85" value="&lt;font style=&quot;font-size: 18px;&quot;&gt;이전 구매상품 &lt;br&gt;제공 기능&lt;/font&gt;" style="ellipse;whiteSpace=wrap;html=1;" parent="1" vertex="1">
          <mxGeometry x="732" y="769" width="120" height="80" as="geometry" />
        </mxCell>
        <mxCell id="EpmdLTgnhzdrOh6OM-BU-87" value="" style="endArrow=classic;html=1;rounded=0;exitX=0.5;exitY=1;exitDx=0;exitDy=0;" parent="1" source="EpmdLTgnhzdrOh6OM-BU-69" target="EpmdLTgnhzdrOh6OM-BU-71" edge="1">
          <mxGeometry width="50" height="50" relative="1" as="geometry">
            <mxPoint x="-195" y="653" as="sourcePoint" />
            <mxPoint x="-195" y="698" as="targetPoint" />
          </mxGeometry>
        </mxCell>
        <mxCell id="EpmdLTgnhzdrOh6OM-BU-88" value="" style="endArrow=classic;html=1;rounded=0;exitX=0.5;exitY=1;exitDx=0;exitDy=0;entryX=0.5;entryY=0;entryDx=0;entryDy=0;" parent="1" source="EpmdLTgnhzdrOh6OM-BU-47" target="EpmdLTgnhzdrOh6OM-BU-67" edge="1">
          <mxGeometry width="50" height="50" relative="1" as="geometry">
            <mxPoint x="607" y="591" as="sourcePoint" />
            <mxPoint x="636" y="666" as="targetPoint" />
          </mxGeometry>
        </mxCell>
        <mxCell id="EpmdLTgnhzdrOh6OM-BU-92" value="" style="endArrow=classic;html=1;rounded=0;entryX=0.5;entryY=0;entryDx=0;entryDy=0;exitX=0.5;exitY=1;exitDx=0;exitDy=0;" parent="1" source="EpmdLTgnhzdrOh6OM-BU-67" target="EpmdLTgnhzdrOh6OM-BU-84" edge="1">
          <mxGeometry width="50" height="50" relative="1" as="geometry">
            <mxPoint x="473" y="656" as="sourcePoint" />
            <mxPoint x="596" y="759" as="targetPoint" />
          </mxGeometry>
        </mxCell>
        <mxCell id="EpmdLTgnhzdrOh6OM-BU-93" value="" style="endArrow=classic;html=1;rounded=0;entryX=0.5;entryY=0;entryDx=0;entryDy=0;exitX=0.512;exitY=1.006;exitDx=0;exitDy=0;exitPerimeter=0;" parent="1" source="EpmdLTgnhzdrOh6OM-BU-67" target="EpmdLTgnhzdrOh6OM-BU-85" edge="1">
          <mxGeometry width="50" height="50" relative="1" as="geometry">
            <mxPoint x="553" y="649" as="sourcePoint" />
            <mxPoint x="713" y="759" as="targetPoint" />
          </mxGeometry>
        </mxCell>
        <mxCell id="EpmdLTgnhzdrOh6OM-BU-94" value="" style="endArrow=classic;html=1;rounded=0;exitX=0.5;exitY=1;exitDx=0;exitDy=0;entryX=0.5;entryY=0;entryDx=0;entryDy=0;" parent="1" source="EpmdLTgnhzdrOh6OM-BU-67" target="EpmdLTgnhzdrOh6OM-BU-72" edge="1">
          <mxGeometry width="50" height="50" relative="1" as="geometry">
            <mxPoint x="293" y="798" as="sourcePoint" />
            <mxPoint x="343" y="748" as="targetPoint" />
          </mxGeometry>
        </mxCell>
        <mxCell id="EpmdLTgnhzdrOh6OM-BU-95" value="" style="endArrow=classic;html=1;rounded=0;exitX=0.5;exitY=1;exitDx=0;exitDy=0;entryX=0.5;entryY=0;entryDx=0;entryDy=0;" parent="1" source="EpmdLTgnhzdrOh6OM-BU-67" target="EpmdLTgnhzdrOh6OM-BU-79" edge="1">
          <mxGeometry width="50" height="50" relative="1" as="geometry">
            <mxPoint x="359" y="651" as="sourcePoint" />
            <mxPoint x="261" y="764" as="targetPoint" />
          </mxGeometry>
        </mxCell>
        <mxCell id="EpmdLTgnhzdrOh6OM-BU-96" value="" style="endArrow=classic;html=1;rounded=0;exitX=0.5;exitY=1;exitDx=0;exitDy=0;entryX=0.5;entryY=0;entryDx=0;entryDy=0;" parent="1" source="EpmdLTgnhzdrOh6OM-BU-67" target="EpmdLTgnhzdrOh6OM-BU-76" edge="1">
          <mxGeometry width="50" height="50" relative="1" as="geometry">
            <mxPoint x="84" y="758" as="sourcePoint" />
            <mxPoint x="134" y="708" as="targetPoint" />
          </mxGeometry>
        </mxCell>
        <mxCell id="EpmdLTgnhzdrOh6OM-BU-97" value="" style="endArrow=classic;html=1;rounded=0;exitX=0.5;exitY=1;exitDx=0;exitDy=0;entryX=0.528;entryY=-0.001;entryDx=0;entryDy=0;entryPerimeter=0;" parent="1" source="EpmdLTgnhzdrOh6OM-BU-67" target="EpmdLTgnhzdrOh6OM-BU-78" edge="1">
          <mxGeometry width="50" height="50" relative="1" as="geometry">
            <mxPoint x="84" y="758" as="sourcePoint" />
            <mxPoint x="134" y="708" as="targetPoint" />
          </mxGeometry>
        </mxCell>
        <mxCell id="EpmdLTgnhzdrOh6OM-BU-98" value="&lt;font style=&quot;font-size: 18px;&quot;&gt;판매처 별 &lt;br&gt;예상 금액&lt;/font&gt;" style="ellipse;whiteSpace=wrap;html=1;" parent="1" vertex="1">
          <mxGeometry x="792" y="573" width="120" height="80" as="geometry" />
        </mxCell>
        <mxCell id="EpmdLTgnhzdrOh6OM-BU-100" value="" style="endArrow=classic;html=1;rounded=0;exitX=0.5;exitY=1;exitDx=0;exitDy=0;" parent="1" source="EpmdLTgnhzdrOh6OM-BU-51" target="EpmdLTgnhzdrOh6OM-BU-98" edge="1">
          <mxGeometry width="50" height="50" relative="1" as="geometry">
            <mxPoint x="580" y="488" as="sourcePoint" />
            <mxPoint x="630" y="438" as="targetPoint" />
          </mxGeometry>
        </mxCell>
        <mxCell id="EpmdLTgnhzdrOh6OM-BU-102" value="" style="endArrow=block;dashed=1;endFill=0;endSize=12;html=1;rounded=0;exitX=0.5;exitY=1;exitDx=0;exitDy=0;entryX=0.5;entryY=0;entryDx=0;entryDy=0;" parent="1" edge="1">
          <mxGeometry width="160" relative="1" as="geometry">
            <mxPoint x="554" y="370" as="sourcePoint" />
            <mxPoint x="520" y="445" as="targetPoint" />
          </mxGeometry>
        </mxCell>
        <mxCell id="EpmdLTgnhzdrOh6OM-BU-103" value="&lt;span style=&quot;font-size: 18px;&quot;&gt;회원탈퇴 기능&lt;/span&gt;" style="ellipse;whiteSpace=wrap;html=1;" parent="1" vertex="1">
          <mxGeometry x="151" y="573" width="120" height="80" as="geometry" />
        </mxCell>
        <mxCell id="EpmdLTgnhzdrOh6OM-BU-104" value="" style="endArrow=classic;html=1;rounded=0;exitX=0.5;exitY=1;exitDx=0;exitDy=0;" parent="1" source="EpmdLTgnhzdrOh6OM-BU-38" target="EpmdLTgnhzdrOh6OM-BU-103" edge="1">
          <mxGeometry width="50" height="50" relative="1" as="geometry">
            <mxPoint x="92" y="593" as="sourcePoint" />
            <mxPoint x="-7" y="668" as="targetPoint" />
          </mxGeometry>
        </mxCell>
        <mxCell id="EpmdLTgnhzdrOh6OM-BU-105" value="&lt;font style=&quot;font-size: 18px;&quot;&gt;SNS정보제공 동의 기능&lt;/font&gt;" style="ellipse;whiteSpace=wrap;html=1;" parent="1" vertex="1">
          <mxGeometry x="-249" y="573" width="120" height="80" as="geometry" />
        </mxCell>
        <mxCell id="EpmdLTgnhzdrOh6OM-BU-106" value="&lt;span style=&quot;font-size: 18px;&quot;&gt;웹 사이트&amp;nbsp;&lt;br&gt;연동기능&lt;br&gt;&lt;/span&gt;" style="ellipse;whiteSpace=wrap;html=1;" parent="1" vertex="1">
          <mxGeometry x="-249" y="703" width="120" height="80" as="geometry" />
        </mxCell>
        <mxCell id="EpmdLTgnhzdrOh6OM-BU-107" value="" style="endArrow=classic;html=1;rounded=0;exitX=0.5;exitY=1;exitDx=0;exitDy=0;entryX=0.5;entryY=0;entryDx=0;entryDy=0;" parent="1" source="EpmdLTgnhzdrOh6OM-BU-36" target="EpmdLTgnhzdrOh6OM-BU-105" edge="1">
          <mxGeometry width="50" height="50" relative="1" as="geometry">
            <mxPoint x="30" y="558" as="sourcePoint" />
            <mxPoint x="-17" y="633" as="targetPoint" />
          </mxGeometry>
        </mxCell>
        <mxCell id="EpmdLTgnhzdrOh6OM-BU-108" value="" style="endArrow=classic;html=1;rounded=0;exitX=0.5;exitY=1;exitDx=0;exitDy=0;" parent="1" source="EpmdLTgnhzdrOh6OM-BU-105" target="EpmdLTgnhzdrOh6OM-BU-106" edge="1">
          <mxGeometry width="50" height="50" relative="1" as="geometry">
            <mxPoint x="39" y="630" as="sourcePoint" />
            <mxPoint x="39" y="688" as="targetPoint" />
          </mxGeometry>
        </mxCell>
        <mxCell id="EpmdLTgnhzdrOh6OM-BU-110" value="&lt;font style=&quot;font-size: 18px;&quot;&gt;비밀번호&amp;nbsp;&lt;br&gt;재 확인 기능&lt;/font&gt;" style="ellipse;whiteSpace=wrap;html=1;" parent="1" vertex="1">
          <mxGeometry x="-379" y="845" width="120" height="80" as="geometry" />
        </mxCell>
        <mxCell id="EpmdLTgnhzdrOh6OM-BU-111" value="&lt;span style=&quot;font-size: 18px;&quot;&gt;알림 설정&amp;nbsp;&lt;br&gt;기능&lt;br&gt;&lt;/span&gt;" style="ellipse;whiteSpace=wrap;html=1;" parent="1" vertex="1">
          <mxGeometry x="464" y="886" width="120" height="80" as="geometry" />
        </mxCell>
        <mxCell id="EpmdLTgnhzdrOh6OM-BU-112" value="" style="endArrow=classic;html=1;rounded=0;exitX=0.5;exitY=1;exitDx=0;exitDy=0;entryX=0.5;entryY=0;entryDx=0;entryDy=0;" parent="1" source="EpmdLTgnhzdrOh6OM-BU-72" target="EpmdLTgnhzdrOh6OM-BU-111" edge="1">
          <mxGeometry width="50" height="50" relative="1" as="geometry">
            <mxPoint x="620" y="881" as="sourcePoint" />
            <mxPoint x="670" y="831" as="targetPoint" />
          </mxGeometry>
        </mxCell>
        <mxCell id="EpmdLTgnhzdrOh6OM-BU-113" value="&lt;span style=&quot;font-size: 18px;&quot;&gt;이벤트일정&lt;/span&gt;" style="ellipse;whiteSpace=wrap;html=1;" parent="1" vertex="1">
          <mxGeometry x="1079" y="290" width="120" height="80" as="geometry" />
        </mxCell>
        <mxCell id="EpmdLTgnhzdrOh6OM-BU-114" value="&lt;span style=&quot;font-size: 18px;&quot;&gt;이벤트 등록&lt;/span&gt;" style="ellipse;whiteSpace=wrap;html=1;" parent="1" vertex="1">
          <mxGeometry x="1079" y="448" width="120" height="80" as="geometry" />
        </mxCell>
        <mxCell id="EpmdLTgnhzdrOh6OM-BU-115" value="&lt;span style=&quot;font-size: 18px;&quot;&gt;이벤트 검색&lt;/span&gt;" style="ellipse;whiteSpace=wrap;html=1;" parent="1" vertex="1">
          <mxGeometry x="1079" y="573" width="120" height="80" as="geometry" />
        </mxCell>
        <mxCell id="EpmdLTgnhzdrOh6OM-BU-120" value="" style="endArrow=classic;html=1;rounded=0;exitX=0.5;exitY=1;exitDx=0;exitDy=0;entryX=0.5;entryY=0;entryDx=0;entryDy=0;" parent="1" source="EpmdLTgnhzdrOh6OM-BU-1" target="EpmdLTgnhzdrOh6OM-BU-113" edge="1">
          <mxGeometry width="50" height="50" relative="1" as="geometry">
            <mxPoint x="549.02" y="171" as="sourcePoint" />
            <mxPoint x="1035.02" y="282" as="targetPoint" />
          </mxGeometry>
        </mxCell>
        <mxCell id="EpmdLTgnhzdrOh6OM-BU-121" value="" style="endArrow=classic;html=1;rounded=0;entryX=0.5;entryY=0;entryDx=0;entryDy=0;exitX=0.5;exitY=1;exitDx=0;exitDy=0;" parent="1" source="EpmdLTgnhzdrOh6OM-BU-113" target="EpmdLTgnhzdrOh6OM-BU-114" edge="1">
          <mxGeometry width="50" height="50" relative="1" as="geometry">
            <mxPoint x="1196" y="383" as="sourcePoint" />
            <mxPoint x="1293" y="461" as="targetPoint" />
          </mxGeometry>
        </mxCell>
        <mxCell id="EpmdLTgnhzdrOh6OM-BU-122" value="" style="endArrow=classic;html=1;rounded=0;entryX=0.5;entryY=0;entryDx=0;entryDy=0;exitX=0.5;exitY=1;exitDx=0;exitDy=0;" parent="1" source="EpmdLTgnhzdrOh6OM-BU-114" target="EpmdLTgnhzdrOh6OM-BU-115" edge="1">
          <mxGeometry width="50" height="50" relative="1" as="geometry">
            <mxPoint x="1139" y="533" as="sourcePoint" />
            <mxPoint x="1139" y="611" as="targetPoint" />
          </mxGeometry>
        </mxCell>
        <mxCell id="t4UHdNHXTjC6i-0TUW6X-1" value="" style="endArrow=classic;html=1;rounded=0;exitX=0.5;exitY=1;exitDx=0;exitDy=0;entryX=0.5;entryY=0;entryDx=0;entryDy=0;" edge="1" parent="1" source="EpmdLTgnhzdrOh6OM-BU-71" target="EpmdLTgnhzdrOh6OM-BU-110">
          <mxGeometry width="50" height="50" relative="1" as="geometry">
            <mxPoint x="-319.5" y="787" as="sourcePoint" />
            <mxPoint x="-319.5" y="837" as="targetPoint" />
          </mxGeometry>
        </mxCell>
      </root>
    </mxGraphModel>
  </diagram>
</mxfile>
